{"title":"Vantage Point.(2008).(P.Travis).Remastered.h263.720p[)(]DD+ 5.1-","uid":8770739,"size":5686070357,"categoryP":"video","categoryS":"hd___movies","magnet":"?xt=urn:btih:c516aa5228e31710d094df3ace6bee4d57128639&amp;dn=Vantage+Point.%282008%29.%28P.Travis%29.Remastered.h263.720p%5B%29%28%5DDD%2B+5.1-&amp;tr=udp%3A%2F%2Ftracker.openbittorrent.com%3A80&amp;tr=udp%3A%2F%2Fopen.demonii.com%3A1337&amp;tr=udp%3A%2F%2Ftracker.coppersurfer.tk%3A6969&amp;tr=udp%3A%2F%2Fexodus.desync.com%3A6969","seeders":0,"leechers":1,"uploader":"Tyr3ll","files":-1,"time":1375449197,"description":"Hi there\nHere is our remastered version from &quot;Vantage Point&quot; aka &quot;Angles d'attaques&quot; BD's movie.\n\nThis remastered version does not take more than 5,3 Go size and is provided in cropped 720p (full screen resolution)\n\nVideo format : MKV\nCodec used : H263\n\nAudio/Codec used :\nDownmixed both sound tracks from :\nAC3 True HD 5.1/640 &amp; 3069 kbps/48 Khz/16 bits \nto : \nDD+ aka E-Ac3 5.1/640 kbps/48 Khz/32 bits\n\nAvailable spoken language :\nEnglish &amp; French\n\nSubtitle : none,sorry.\n\nResult : very acceptable quality between video and sound anyway.\n(somewhat grained of course...)\n\nVQ &amp; AQ : 14-15 (Normal quality)\n\nsee imdb right here : &lt;a href=&quot;\nhttp://www.imdb.com/title/tt0443274/&quot; rel=&quot;nofollow&quot; target=&quot;_NEW&quot;&gt;\nhttp://www.imdb.com/title/tt0443274/&lt;/a&gt;\n\nMore details :\n\n\n    Complete name : Vantage Point.(2008).(P.Travis).Remastered.h263.720p[)(]DD+ 5.1-(En,Fr).mkv\n\n    Format : Matroska\n    Format version : Version 2\n    File size : 5.30 GiB\n    Duration : 1h 30mn\n    Overall bit rate : 8 415 Kbps\n    Encoded date : UTC 2013-08-02 11:57:25\n    Writing application : Lavf54.63.100\n    Writing library : Lavf54.63.100\n\n  Video #1\n    ID : 1\n    Format : H.263\n    Codec ID : V_MS/VFW/FOURCC / H263\n    Duration : 1h 30mn\n    Bit rate : 6 968 Kbps\n    Width : 1 280 pixels\n    Height : 392 pixels\n    Display aspect ratio : 2.40:1\n    Frame rate mode : Constant\n    Frame rate : 23.976 fps\n    Bit depth : 8 bits\n    Compression mode : Lossy\n    Bits/(Pixel*Frame) : 0.579\n    Stream size : 4.38 GiB (83%)\n    Language : English\n    Default : Yes\n    Forced : No\n\n  Audio #2\n    ID : 2\n    Format : E-AC-3\n    Format/Info : Audio Coding 3\n    Format settings, Endianness : Big\n    Codec ID : A_EAC3\n    Duration : 1h 30mn\n    Bit rate mode : Constant\n    Bit rate : 640 Kbps\n    Channel count : 6 channels\n    Channel positions : Front: L C R, Side: L R, LFE\n    Sampling rate : 48.0 KHz\n    Bit depth : 32 bits\n    Compression mode : Lossy\n    Stream size : 412 MiB (8%)\n    Language : English\n    Default : Yes\n    Forced : No\n\n  Audio #3\n    ID : 3\n    Format : E-AC-3\n    Format/Info : Audio Coding 3\n    Format settings, Endianness : Big\n    Codec ID : A_EAC3\n    Duration : 1h 30mn\n    Bit rate mode : Constant\n    Bit rate : 640 Kbps\n    Channel count : 6 channels\n    Channel positions : Front: L C R, Side: L R, LFE\n    Sampling rate : 48.0 KHz\n    Bit depth : 32 bits\n    Compression mode : Lossy\n    Stream size : 412 MiB (8%)\n    Language : French\n    Default : Yes\n    Forced : No\n\n\nWe'll give you a few screenshots as &quot;preview&quot; asap\n\nenjoy and seed a bit,please.Thx\n\nWish you have a very nice day\n\nregards","torrent":{"xt":"urn:btih:c516aa5228e31710d094df3ace6bee4d57128639","amp;dn":"Vantage+Point.%282008%29.%28P.Travis%29.Remastered.h263.720p%5B%29%28%5DDD%2B+5.1-","amp;tr":["udp%3A%2F%2Ftracker.openbittorrent.com%3A80","udp%3A%2F%2Fopen.demonii.com%3A1337","udp%3A%2F%2Ftracker.coppersurfer.tk%3A6969","udp%3A%2F%2Fexodus.desync.com%3A6969"],"infoHash":"c516aa5228e31710d094df3ace6bee4d57128639","infoHashBuffer":{"type":"Buffer","data":[197,22,170,82,40,227,23,16,208,148,223,58,206,107,238,77,87,18,134,57]},"announce":[],"urlList":[]}}